<svg xmlns="http://www.w3.org/2000/svg" viewBox="0 0 600 120" width="600" height="120">
  <style>
    .logo-icon { fill: #1a1a2e; }
    @media (prefers-color-scheme: dark) {
      .logo-icon { fill: #e2e8f0; }
    }
    .logo-text { fill: #1a1a2e; }
    @media (prefers-color-scheme: dark) {
      .logo-text { fill: #f1f5f9; }
    }
  </style>
  <!-- Icon from favicon.svg, scaled down -->
  <g class="logo-icon" transform="translate(0, 0) scale(0.0234)">
    <path d="M960 4560 l0 -400 200 0 200 0 0 200 0 200 1200 0 1200 0 0 -200 0 -200 200 0 200 0 0 400 0 400 -1600 0 -1600 0 0 -400z"/>
    <path d="M960 3360 l0 -400 200 0 200 0 0 400 0 400 -200 0 -200 0 0 -400z"/>
    <path d="M1760 3160 l0 -600 200 0 200 0 0 600 0 600 -200 0 -200 0 0 -600z"/>
    <path d="M2960 3160 l0 -600 200 0 200 0 0 600 0 600 -200 0 -200 0 0 -600z"/>
    <path d="M3760 3360 l0 -400 200 0 200 0 0 400 0 400 -200 0 -200 0 0 -400z"/>
    <path d="M960 2160 l0 -400 200 0 200 0 0 400 0 400 -200 0 -200 0 0 -400z"/>
    <path d="M3760 2160 l0 -400 200 0 200 0 0 400 0 400 -200 0 -200 0 0 -400z"/>
    <path d="M1760 1560 l0 -200 800 0 800 0 0 200 0 200 -800 0 -800 0 0 -200z"/>
    <path d="M960 760 l0 -600 1600 0 1600 0 0 600 0 600 -200 0 -200 0 0 -400 0 -400 -1200 0 -1200 0 0 400 0 400 -200 0 -200 0 0 -600z"/>
  </g>
  <!-- Text: Sman -->
  <text class="logo-text" x="130" y="85" font-family="-apple-system, BlinkMacSystemFont, 'Segoe UI', Roboto, Helvetica, Arial, sans-serif" font-size="72" font-weight="700" letter-spacing="-1.5">Sman</text>
</svg>
