<?xml version="1.0" standalone="no"?>
<!DOCTYPE svg PUBLIC "-//W3C//DTD SVG 20010904//EN"
 "http://www.w3.org/TR/2001/REC-SVG-20010904/DTD/svg10.dtd">
<svg version="1.0" xmlns="http://www.w3.org/2000/svg"
 width="512.000000pt" height="512.000000pt" viewBox="0 0 512.000000 512.000000"
 preserveAspectRatio="xMidYMid meet">

<g transform="translate(0.000000,512.000000) scale(0.100000,-0.100000)"
fill="#000000" stroke="none">
<path d="M960 4560 l0 -400 200 0 200 0 0 200 0 200 1200 0 1200 0 0 -200 0
-200 200 0 200 0 0 400 0 400 -1600 0 -1600 0 0 -400z"/>
<path d="M960 3360 l0 -400 200 0 200 0 0 400 0 400 -200 0 -200 0 0 -400z"/>
<path d="M1760 3160 l0 -600 200 0 200 0 0 600 0 600 -200 0 -200 0 0 -600z"/>
<path d="M2960 3160 l0 -600 200 0 200 0 0 600 0 600 -200 0 -200 0 0 -600z"/>
<path d="M3760 3360 l0 -400 200 0 200 0 0 400 0 400 -200 0 -200 0 0 -400z"/>
<path d="M960 2160 l0 -400 200 0 200 0 0 400 0 400 -200 0 -200 0 0 -400z"/>
<path d="M3760 2160 l0 -400 200 0 200 0 0 400 0 400 -200 0 -200 0 0 -400z"/>
<path d="M1760 1560 l0 -200 800 0 800 0 0 200 0 200 -800 0 -800 0 0 -200z"/>
<path d="M960 760 l0 -600 1600 0 1600 0 0 600 0 600 -200 0 -200 0 0 -400 0
-400 -1200 0 -1200 0 0 400 0 400 -200 0 -200 0 0 -600z"/>
</g>
</svg>
